<svg xmlns="http://www.w3.org/2000/svg" viewBox="0 0 15 16" fill="#ffffff">
                          <path d="M906.022,4936.83h-3.536a2.262,2.262,0,0,1-2.262-1.69,2.461,2.461,0,0,1,.97-2.75,0.329,0.329,0,0,0,.149-0.44c-0.569-1.99-1.13-3.99-1.68-5.98a0.361,0.361,0,0,0-.417-0.34c-0.428.02-.857,0.02-1.285,0.01a0.785,0.785,0,0,1-.835-0.83,0.757,0.757,0,0,1,.835-0.77c0.67-.01,1.34-0.01,2.009-0.01a0.832,0.832,0,0,1,.929.75c0.243,0.86.243,0.86,1.091,0.86,3,0,6-.01,9-0.01,0.133,0,.268,0,0.4.01a0.794,0.794,0,0,1,.629,1.21c-0.959,2.06-1.933,4.1-2.886,6.17a0.95,0.95,0,0,1-.954.62q-2.712-.015-5.424,0a3.87,3.87,0,0,0-.482.01,0.754,0.754,0,0,0-.646.75,0.769,0.769,0,0,0,.626.81,2.565,2.565,0,0,0,.48.03h6.831c0.714,0,1.066.27,1.059,0.8s-0.356.79-1.067,0.79h-3.536Zm-4.434-9.59c0.437,1.57.855,3.09,1.3,4.59a0.455,0.455,0,0,0,.371.19c1.434,0.02,2.867,0,4.3.02a0.494,0.494,0,0,0,.519-0.34c0.611-1.33,1.24-2.66,1.861-3.99,0.067-.14.126-0.29,0.2-0.47h-8.552Zm6.786,11.2a0.8,0.8,0,0,1-.017,1.59,0.763,0.763,0,0,1-.723-0.81A0.752,0.752,0,0,1,908.374,4938.44Zm-3.753.79a0.78,0.78,0,0,1-.73.8,0.8,0.8,0,0,1-.013-1.59A0.768,0.768,0,0,1,904.621,4939.23Z" transform="translate(-897.125 -4924.03)"></path>
                        </svg>