<svg data-name="Layer 1" fill="#ffffff" xmlns="http://www.w3.org/2000/svg" viewBox="0 0 50 50"><title>beg-01</title><path d="M42.89,40.44c-.16-3.37-.3-6.75-.46-10.12-.13-2.75-.25-5.5-.39-8.25-.11-1.95-.11-3.91-.37-5.85a6.13,6.13,0,0,0-3.77-5.06,6.7,6.7,0,0,0-3.25-.5c-.39,0-.49-.09-.51-.48a9.14,9.14,0,0,0-18.26,0c0,.29-.09.41-.41.39a8.32,8.32,0,0,0-1.86.13,6.22,6.22,0,0,0-5.29,5.34c-.17,1.1-.14,2.21-.21,3.32-.16,3-.29,6-.43,9l-.3,6c-.08,1.58-.19,3.16-.22,4.74a26.34,26.34,0,0,0,0,3.77,6.23,6.23,0,0,0,6.21,5.58h22a11.53,11.53,0,0,0,2.34-.17,6.08,6.08,0,0,0,5.06-4.73A9.9,9.9,0,0,0,42.89,40.44ZM18.94,10.24A6.09,6.09,0,0,1,31,9.8c.14.82.14.82-.68.82H19.28C19,10.63,18.92,10.53,18.94,10.24ZM39.83,42.4a3,3,0,0,1-2.59,2.84,7.51,7.51,0,0,1-1.71.16H24.69c-3.86,0-7.73.06-11.59,0A2.9,2.9,0,0,1,10.27,43a5.16,5.16,0,0,1-.13-1.52l.51-11q.21-4.29.41-8.58c.08-1.63.16-3.26.25-4.89a3.33,3.33,0,0,1,3.61-3.29h20.6a1.37,1.37,0,0,1,.4.05,3.35,3.35,0,0,1,2.78,3.41Q39,23,39.29,28.79c.13,3.12.29,6.25.43,9.37,0,.92,0,1.85.12,2.76A6.66,6.66,0,0,1,39.83,42.4Z"/></svg>