<svg xmlns="http://www.w3.org/2000/svg" viewBox="0 0 15 14.03" fill="#ffffff">
                           <path d="M910.692,4876.99a4.155,4.155,0,0,0-3.132-1.42,3.861,3.861,0,0,0-2.473.89,5.444,5.444,0,0,0-.681.67,5.065,5.065,0,0,0-.681-0.67,3.856,3.856,0,0,0-2.472-.89,4.155,4.155,0,0,0-3.132,1.42,5.177,5.177,0,0,0-1.229,3.44,6.051,6.051,0,0,0,1.5,3.88,31.438,31.438,0,0,0,3.6,3.52c0.464,0.42,1.039.93,1.622,1.46a1.177,1.177,0,0,0,1.592,0c0.586-.53,1.162-1.05,1.626-1.46a30.789,30.789,0,0,0,3.592-3.52,6.052,6.052,0,0,0,1.5-3.88A5.177,5.177,0,0,0,910.692,4876.99Zm-9.439.21a2.318,2.318,0,0,1,1.507.55,3.779,3.779,0,0,1,.876,1.06,0.885,0.885,0,0,0,1.541,0,3.727,3.727,0,0,1,.876-1.06,2.314,2.314,0,0,1,1.507-.55,2.619,2.619,0,0,1,1.972.89,3.522,3.522,0,0,1,.816,2.34,4.421,4.421,0,0,1-1.141,2.84,30.611,30.611,0,0,1-3.4,3.32l-0.028.03c-0.375.33-.862,0.77-1.371,1.22-0.49-.44-0.96-0.86-1.4-1.25a29.663,29.663,0,0,1-3.4-3.32,4.423,4.423,0,0,1-1.142-2.84,3.523,3.523,0,0,1,.817-2.34A2.617,2.617,0,0,1,901.253,4877.2Z" transform="translate(-896.906 -4875.56)"></path>
                        </svg>