<svg xmlns="http://www.w3.org/2000/svg" viewBox="0 0 13.969 14.96" fill="#ffffff">
                          <path d="M911.1,5035.96c-0.421-.46-0.851-0.92-1.28-1.37l-2.168-2.31a6.424,6.424,0,0,0-1.2-8.45,5.4,5.4,0,0,0-7.4.55,6.435,6.435,0,0,0-.565,7.93,5.653,5.653,0,0,0,3.684,2.36,5.485,5.485,0,0,0,4.257-1.07l0.07,0.08c0.154,0.19.312,0.38,0.478,0.55,0.918,0.99,1.837,1.98,2.767,2.96a1.35,1.35,0,0,0,.608.38,1.151,1.151,0,0,0,.182.02,0.838,0.838,0,0,0,.729-0.5A0.95,0.95,0,0,0,911.1,5035.96Zm-5.3-10.21a4.377,4.377,0,0,1-.012,5.89,3.753,3.753,0,0,1-2.748,1.21h-0.007a3.745,3.745,0,0,1-2.761-1.24,4.225,4.225,0,0,1-1.128-2.93,4.015,4.015,0,0,1,3.9-4.15h0A3.794,3.794,0,0,1,905.8,5025.75Z" transform="translate(-897.406 -5022.63)"></path>
                        </svg>