<svg viewBox="0 0 480 480" fill="#b59548" xmlns="http://www.w3.org/2000/svg"><path d="m376 280v16c39.746094-.046875 71.953125-32.253906 72-72h-16c-.035156 30.914062-25.085938 55.964844-56 56zm0 0"/><path d="m464 168v-80c0-48.601562-39.398438-88-88-88s-88 39.398438-88 88v44.800781l-204.855469-54.9375c-17.070312-4.550781-34.605469 5.574219-39.199219 22.632813l-18.257812 68.144531c-14.9375 3.003906-25.68359375 16.125-25.6875 31.359375v248c0 17.671875 14.328125 32 32 32h416c17.671875 0 32-14.328125 32-32v-224c.003906-19.867188-5.726562-39.3125-16.503906-56zm-88-152c39.746094.046875 71.953125 32.253906 72 72v61.128906c-4.910156-4.71875-10.269531-8.949218-16-12.625v-48.503906c0-30.929688-25.070312-56-56-56s-56 25.070312-56 56v48.503906c-5.730469 3.675782-11.089844 7.90625-16 12.625v-61.128906c.046875-39.746094 32.253906-71.953125 72-72zm40 112c-25.59375-10.699219-54.40625-10.699219-80 0v-40c0-22.089844 17.910156-40 40-40s40 17.910156 40 40zm-356.601562-23.359375c2.285156-8.539063 11.0625-13.609375 19.601562-11.320313l209 56v18.679688h-245.601562zm-27.398438 79.359375h248c-5.296875 12.671875-8.015625 26.269531-8 40 0 2.703125.199219 5.351562.40625 8h-256.40625v-32c0-8.835938 7.164062-16 16-16zm-16 64h258.902344c3.464844 14.570312 10.046875 28.214844 19.289062 40h-278.191406zm448 200c0 8.835938-7.164062 16-16 16h-416c-8.835938 0-16-7.164062-16-16v-144h293.640625c23.03125 19.171875 53.230469 27.449219 82.816406 22.695312 29.589844-4.753906 55.675781-22.074218 71.542969-47.496093zm-88-136c-48.601562 0-88-39.398438-88-88s39.398438-88 88-88 88 39.398438 88 88c-.058594 48.578125-39.421875 87.941406-88 88zm0 0"/><path d="m400 256v-26.960938c11.347656-12.863281 10.53125-32.386718-1.851562-44.261718-12.378907-11.871094-31.917969-11.871094-44.296876 0-12.382812 11.875-13.199218 31.398437-1.851562 44.261718v26.960938c0 4.417969 3.582031 8 8 8h32c4.417969 0 8-3.582031 8-8zm-16-30.222656v22.222656h-16v-22.222656c0-2.269532-.964844-4.429688-2.648438-5.945313-3.394531-2.996093-5.34375-7.304687-5.351562-11.832031 0-8.835938 7.164062-16 16-16s16 7.164062 16 16c-.007812 4.527344-1.957031 8.835938-5.351562 11.832031-1.683594 1.515625-2.648438 3.675781-2.648438 5.945313zm0 0"/><path d="m96.839844 396.425781-5.785156 11.574219h-14.109376l-5.746093-11.574219c-1.359375-2.726562-4.152344-4.441406-7.199219-4.425781h-24v16h19.054688l4 8-4 8h-19.054688v16h24c3.03125 0 5.804688-1.710938 7.160156-4.425781l5.785156-11.574219h14.109376l5.785156 11.574219c1.355468 2.714843 4.128906 4.425781 7.160156 4.425781h24v-16h-19.054688l-4-8 4-8h19.054688v-16h-24c-3.03125 0-5.804688 1.710938-7.160156 4.425781zm0 0"/><path d="m376 424h56v16h-56zm0 0"/><path d="m304 424h56v16h-56zm0 0"/><path d="m232 424h56v16h-56zm0 0"/><path d="m160 424h56v16h-56zm0 0"/><path d="m416 336h16v32h-16zm0 0"/><path d="m384 336h16v32h-16zm0 0"/><path d="m352 336h16v32h-16zm0 0"/><path d="m320 336h16v32h-16zm0 0"/><path d="m288 336h16v32h-16zm0 0"/><path d="m256 336h16v32h-16zm0 0"/></svg>